<?xml version="1.0" encoding="UTF-8"?>
<svg width="48" height="48" version="1.1" viewBox="0 0 12.7 12.7" xmlns="http://www.w3.org/2000/svg">
<path d="m4.8842 9.4862h2.9311m-1.4652-8.7813v0.62724m3.9917 1.0262-0.44346 0.44346m2.0968 3.5483h-0.62724m-10.036 0h-0.62724m2.0968-3.5483-0.44346-0.44346m1.7738 6.2096a3.1362 3.1362 0 1 1 4.4358 0l-0.34373 0.3431a2.1163 2.1163 0 0 0-0.61971 1.4966v0.33306a1.2545 1.2545 0 1 1-2.5089 0v-0.33306c0-0.56138-0.2233-1.1002-0.61971-1.4966z" fill="none" stroke="#d97706" stroke-linecap="round" stroke-linejoin="round" stroke-width="1.001"/>
<path d="m6.35 0.70488v0.62724m3.9917 1.0262-0.44345 0.44346m2.0968 3.5483h-0.62724m-10.036 0h-0.62724m2.0968-3.5483-0.44346-0.44346" fill="none" stroke="#10b981" stroke-linecap="round" stroke-linejoin="round" stroke-width="1.001"/>
</svg>
